<svg xmlns="http://www.w3.org/2000/svg" width="90" height="90" viewBox="0 0 90 90.000001"><defs><clipPath><path d="M0 500h1024V0H0v500z"/></clipPath></defs><g><path fill="none" d="M0 0h90v90H0z"/><path d="M21 6C11 6 6 6 6 17.627v54.746C6 84 11 84 21 84h26.662V53.795H37.498V42.02h10.164v-8.678c0-10.075 6.153-15.56 15.14-15.56 4.306 0 8.007.32 9.085.462v10.53h-6.235c-4.887 0-5.834 2.324-5.834 5.732v7.515h11.66l-1.52 11.775h-10.14V84H69c10 0 15 0 15-11.627V17.627C84 6 79 6 69 6H21z" opacity=".98" fill="#808080"/></g></svg>