<svg xmlns="http://www.w3.org/2000/svg" width="90" height="90" viewBox="0 0 90 90.000001"><defs><clipPath><path d="M0 500h1024V0H0v500z"/></clipPath></defs><g><path style="text-align:center;line-height:125%;-inkscape-font-specification:Ubuntu" d="M21 6C11 6 6 6 6 17.627v54.746C6 84 11 84 21 84h48c10 0 15 0 15-11.627V17.627C84 6 79 6 69 6H21zm4 18h40c6.667 0 10 0 10 7.752v26.496C75 65.998 71.667 66 65 66H25c-6.667 0-10 0-10-7.752V31.752C15 24.002 18.333 24 25 24zm-4.158 4.584l-1.76 2.887 25.945 18.393L70.973 31.47l-1.76-2.886L45.027 42.62 20.842 28.583z" font-size="15" letter-spacing="0" word-spacing="0" text-anchor="middle" fill="#808080" font-family="Ubuntu"/><path fill="none" d="M1 0h90v90H1z"/></g></svg>