<svg xmlns="http://www.w3.org/2000/svg" width="90" height="90" viewBox="0 0 90 90.000001"><defs><clipPath><path d="M0 500h1024V0H0v500z"/></clipPath></defs><g><path fill="none" d="M0 0h90v90H0z"/><path d="M21 6c-9.867 0-14.857.022-14.988 11.19l.02-.018c6.66-5.54 13.966-6.463 20.095-6.578h24.7l-6.56 5.316h-7.163c2.868 2.498 7.148 6.968 7.148 14.928 0 8.718-4.572 12.85-9.48 16.732-1.52 1.53-3.272 3.183-3.272 5.78 0 2.588 1.752 4.003 3.035 5.064l4.213 3.293C43.888 66.07 50.602 70.08 50.6 78.21c0 2.18-.356 3.56-1.04 5.784h20.32c9.343-.01 14.076-.362 14.116-11.484V31.537h-12.91v14.887h-6.324V31.537H50.006v-6.19h14.756V10.59h6.324v14.756h12.91V17.49C83.956 6.008 78.958 6 69 6H21zm-.865 8.58c-3.04 0-6.308 1.53-8.182 3.89-1.987 2.475-2.293 5.65-2.293 8.72 0 7.892 4.126 19.566 14.176 19.566 2.92 0 5.915-.75 7.836-2.95 2.193-2.523 3.053-5.843 3.053-7.542 0-8.486-4.897-21.684-14.59-21.684zM6.005 47.646c.017 3.875.016 19.502.016 19.502 6.673-2.88 13.537-3.013 18.003-3.316-1.638-2.125-3.505-4.36-3.505-8.01 0-2.003.586-3.183 1.17-4.6-1.29.117-2.57.24-3.74.24-5.304 0-8.74-1.14-11.944-3.816zm19.31 19.487c-1.057 0-7.37.235-12.276 1.887-1.683.616-4.606 1.016-7.013 4.28C6.302 83.967 11.283 84 21 84h21.568c.024-.332.022-.552.022-1.188 0-6.02-5.712-9.194-14.598-15.56-.93-.12-1.515-.12-2.678-.12z" fill="#808080"/></g></svg>