<svg xmlns="http://www.w3.org/2000/svg" width="179" height="89" viewBox="0 0 179 89"><g fill="#AEA79F"><path d="M47.446 11.84c-.01.244-.015.487-.015.73 0 4.31 2.265 10.686 7.78 10.686 1.603 0 3.247-.406 4.302-1.61 1.203-1.378 1.675-3.193 1.675-4.12 0-4.635-2.687-11.844-8.007-11.844-.367 0-.74.047-1.11.124-1.87 1.72-3.438 3.76-4.624 6.034zM80.938 5.013v6.626h5.43C85 9.09 83.152 6.837 80.937 5.012zM57.492 34.453c-.51-.066-.832-.067-1.47-.067-.566 0-3.88.125-6.542.97 3.783 4.943 9.61 8.235 16.223 8.607.093-.232.2-.46.195-.955-.036-3.29-3.53-5.078-8.406-8.555zM51.98 25.826c-2.87 0-5.23-1.08-6.98-2.51.213 3.6 1.29 6.964 3.028 9.893 2.62-.673 5.58-.51 7.286-.626-.9-1.16-1.924-2.382-1.924-4.375 0-1.095.32-1.74.64-2.513-.706.063-1.408.13-2.05.13zM80.938 15.052v8.204h-3.486v-8.204H69.32V11.64h8.132V3.505h1.414C75.433 1.29 71.346 0 66.958 0c-4.433 0-8.556 1.315-12.01 3.57.52-.034 1.028-.055 1.522-.064h13.553l-3.6 2.905h-3.93c1.575 1.366 3.924 3.806 3.924 8.153 0 4.762-2.51 7.02-5.204 9.14-.833.834-1.795 1.738-1.795 3.156 0 1.413.962 2.185 1.666 2.766l2.31 1.798c2.82 2.382 6.507 5.142 6.507 9.583 0 1.056-.113 2.01-.407 2.844C80.448 42.594 88.958 33.293 88.958 22c0-2.43-.4-4.763-1.126-6.948h-6.894z"/></g><path fill="#AEA79F" d="M157 36.008c-7.736 0-14.008-6.27-14.008-14.01 0-7.736 6.272-14.007 14.01-14.007s14.007 6.272 14.007 14.01c0 7.74-6.272 14.008-14.01 14.008zM179 22c0 12.15-9.85 22-22 22s-22-9.85-22-22 9.85-22 22-22 22 9.85 22 22zM157 5.352c-9.195 0-16.648 7.454-16.648 16.648 0 9.196 7.453 16.648 16.648 16.648 9.196 0 16.648-7.452 16.648-16.648 0-9.194-7.452-16.648-16.648-16.648z"/><path fill="#AEA79F" d="M112 0C99.85 0 90 9.85 90 22s9.85 22 22 22c.382 0 .76-.01 1.138-.03V27.803H108v-6.85h5.138V15.26c0-4.3 2.925-8.26 9.33-8.26 2.595 0 4.497.25 4.497.25l-.143 6.85s-1.95-.017-4.085-.017c-2.31 0-2.747 1.07-2.747 2.837v4.032H127l-.303 6.85h-6.708V42.5C128.187 39.3 134 31.33 134 22c0-12.15-9.85-22-22-22z"/><path fill="#AEA79F" d="M44 22c0 12.15-9.85 22-22 22S0 34.15 0 22 9.85 0 22 0s22 9.85 22 22zM26.01 11.74c-1.948.59-3.82 3.217-3.234 6.19-6.46-.39-9.315-3.85-11.03-5.505-1.75 3.085.044 6.082 1.61 7.053-.827.045-1.827-.312-2.323-.622-.19 2.846 2.132 4.818 4.107 5.33-.63.187-1.226.213-2.243.06.866 2.863 3.192 3.63 4.925 3.755-2.23 1.935-4.91 2.357-7.823 2.215 7.552 4.617 15.18 1.776 18.892-1.847 3.117-3.043 4.51-7.6 4.56-11.675.713-.58 2.155-1.807 2.547-2.768-.57.22-1.696.74-2.87.786.968-.632 2.076-1.9 2.192-2.894-1.07.583-2.31 1.088-3.372 1.25-2-1.93-3.95-1.93-5.94-1.326z"/><g fill="#DD4813"><path d="M47.446 56.84c-.01.244-.015.487-.015.73 0 4.31 2.265 10.686 7.78 10.686 1.603 0 3.247-.406 4.302-1.61 1.203-1.378 1.675-3.193 1.675-4.12 0-4.635-2.687-11.844-8.007-11.844-.367 0-.74.047-1.11.124-1.87 1.72-3.438 3.76-4.624 6.034zM80.938 50.013v6.626h5.43c-1.366-2.55-3.215-4.802-5.43-6.627zM57.492 79.453c-.51-.066-.832-.067-1.47-.067-.566 0-3.88.125-6.542.97 3.783 4.943 9.61 8.235 16.223 8.607.093-.232.2-.46.195-.955-.036-3.29-3.53-5.078-8.406-8.555zM51.98 70.826c-2.87 0-5.23-1.08-6.98-2.51.213 3.6 1.29 6.964 3.028 9.893 2.62-.673 5.58-.51 7.286-.626-.9-1.16-1.924-2.382-1.924-4.375 0-1.095.32-1.74.64-2.513-.706.063-1.408.13-2.05.13zM80.938 60.052v8.204h-3.486v-8.204H69.32V56.64h8.132v-8.134h1.414C75.433 46.29 71.346 45 66.958 45c-4.433 0-8.556 1.315-12.01 3.57.52-.034 1.028-.055 1.522-.064h13.553l-3.6 2.905h-3.93c1.575 1.366 3.924 3.806 3.924 8.153 0 4.762-2.51 7.02-5.204 9.14-.833.834-1.795 1.738-1.795 3.156 0 1.413.962 2.185 1.666 2.766l2.31 1.798c2.82 2.382 6.507 5.142 6.507 9.583 0 1.056-.113 2.01-.407 2.844C80.448 87.594 88.958 78.293 88.958 67c0-2.43-.4-4.763-1.126-6.948h-6.894z"/></g><path fill="#DD4813" d="M157 81.008c-7.736 0-14.008-6.27-14.008-14.01 0-7.736 6.272-14.007 14.01-14.007s14.007 6.272 14.007 14.01c0 7.74-6.272 14.008-14.01 14.008zM179 67c0 12.15-9.85 22-22 22s-22-9.85-22-22 9.85-22 22-22 22 9.85 22 22zm-22-16.648c-9.195 0-16.648 7.454-16.648 16.648 0 9.196 7.453 16.648 16.648 16.648 9.196 0 16.648-7.452 16.648-16.648 0-9.194-7.452-16.648-16.648-16.648z"/><path fill="#DD4813" d="M112 45c-12.15 0-22 9.85-22 22s9.85 22 22 22c.382 0 .76-.01 1.138-.03V72.803H108v-6.85h5.138V60.26c0-4.3 2.925-8.26 9.33-8.26 2.595 0 4.497.25 4.497.25l-.143 6.85s-1.95-.017-4.085-.017c-2.31 0-2.747 1.07-2.747 2.837v4.032H127l-.303 6.85h-6.708V87.5C128.187 84.3 134 76.33 134 67c0-12.15-9.85-22-22-22z"/><path fill="#DD4813" d="M44 67c0 12.15-9.85 22-22 22S0 79.15 0 67s9.85-22 22-22 22 9.85 22 22zM26.01 56.74c-1.948.59-3.82 3.217-3.234 6.19-6.46-.39-9.315-3.85-11.03-5.505-1.75 3.085.044 6.082 1.61 7.053-.827.045-1.827-.312-2.323-.622-.19 2.846 2.132 4.818 4.107 5.33-.63.187-1.226.213-2.243.06.866 2.863 3.192 3.63 4.925 3.755-2.23 1.935-4.91 2.357-7.823 2.215 7.552 4.617 15.18 1.776 18.892-1.847 3.117-3.043 4.51-7.6 4.56-11.675.713-.58 2.155-1.807 2.547-2.768-.57.22-1.696.74-2.87.786.968-.632 2.076-1.9 2.192-2.894-1.07.583-2.31 1.088-3.372 1.25-2-1.93-3.95-1.93-5.94-1.326z"/></svg>