<svg xmlns="http://www.w3.org/2000/svg" width="425.197" height="209.764" viewBox="0 0 425.197 209.764"><circle fill="#fff" cx="337.365" cy="90.017" r="16.966"/><path fill="#DD4814" d="M326.783 87.978c-1.127 0-2.036.912-2.036 2.04 0 1.122.91 2.036 2.036 2.036 1.128 0 2.04-.914 2.04-2.037 0-1.127-.912-2.04-2.04-2.04zm14.555 9.266c-.976.56-1.308 1.807-.747 2.78.564.976 1.81 1.308 2.785.747.975-.56 1.31-1.808.747-2.782-.563-.975-1.81-1.31-2.784-.744zm-10.125-7.227c0-2.016.998-3.797 2.53-4.873l-1.49-2.498c-1.783 1.19-3.11 3.014-3.663 5.148.646.525 1.055 1.324 1.055 2.223 0 .893-.408 1.69-1.055 2.22.552 2.132 1.88 3.954 3.664 5.145l1.488-2.496c-1.53-1.076-2.53-2.855-2.53-4.87zm5.952-5.957c3.112 0 5.663 2.385 5.93 5.43l2.906-.047c-.143-2.244-1.123-4.26-2.63-5.742-.776.292-1.672.25-2.445-.198-.773-.447-1.26-1.2-1.394-2.02-.753-.207-1.546-.322-2.365-.322-1.408 0-2.74.332-3.922.918l1.415 2.537c.762-.356 1.613-.555 2.507-.555zm0 11.908c-.895 0-1.745-.197-2.507-.553l-1.415 2.537c1.18.588 2.514.916 3.922.916.82 0 1.612-.11 2.366-.32.135-.82.62-1.572 1.395-2.02.775-.448 1.67-.49 2.445-.196 1.507-1.484 2.487-3.5 2.63-5.746l-2.904-.04c-.268 3.04-2.82 5.422-5.93 5.422zm4.173-13.18c.974.562 2.22.23 2.782-.747.563-.97.23-2.218-.745-2.78-.976-.562-2.22-.23-2.784.746-.56.974-.228 2.22.748 2.783z"/><g fill="#fff"><path d="M104.798 134.53c-1.725.432-4 .89-6.826 1.374-2.83.483-6.102.726-9.817.726-3.23 0-5.952-.472-8.16-1.413-2.208-.94-3.985-2.274-5.33-3.998-1.35-1.725-2.317-3.758-2.91-6.102-.593-2.34-.888-4.94-.888-7.795v-23.59h7.513v21.974c0 5.117.808 8.78 2.424 10.986 1.616 2.21 4.334 3.314 8.16 3.314.808 0 1.64-.03 2.504-.083.86-.053 1.67-.122 2.425-.202.752-.08 1.44-.16 2.06-.242.618-.08 1.063-.173 1.333-.283V93.734h7.514v40.796zM123.134 95.59c.915-.59 2.304-1.21 4.16-1.856s4-.97 6.423-.97c3.016 0 5.696.54 8.04 1.616 2.34 1.078 4.32 2.584 5.937 4.523 1.614 1.94 2.84 4.256 3.675 6.947.833 2.695 1.252 5.656 1.252 8.888 0 3.392-.5 6.45-1.494 9.168-1 2.72-2.412 5.02-4.242 6.907-1.832 1.885-4.04 3.34-6.625 4.362-2.583 1.023-5.492 1.535-8.724 1.535-3.502 0-6.598-.244-9.29-.728-2.692-.485-4.9-.97-6.624-1.454v-60.18l7.513-1.294V95.59zm0 33.607c.755.216 1.818.42 3.192.605 1.373.19 3.082.284 5.13.284 4.038 0 7.27-1.334 9.692-4 2.425-2.665 3.637-6.45 3.637-11.348 0-2.153-.216-4.173-.646-6.062-.433-1.883-1.133-3.514-2.103-4.885-.97-1.374-2.222-2.45-3.756-3.23s-3.38-1.173-5.532-1.173c-2.05 0-3.932.352-5.654 1.05-1.727.702-3.045 1.43-3.96 2.183v26.577zM194.546 134.53c-1.725.432-4 .89-6.826 1.374-2.827.483-6.1.726-9.816.726-3.23 0-5.95-.472-8.158-1.413-2.21-.94-3.986-2.274-5.33-3.998-1.35-1.725-2.316-3.758-2.91-6.102-.593-2.34-.89-4.94-.89-7.795v-23.59h7.513v21.974c0 5.117.808 8.78 2.423 10.986 1.617 2.21 4.336 3.314 8.16 3.314.81 0 1.643-.03 2.504-.083.86-.053 1.668-.122 2.424-.202.755-.08 1.44-.16 2.062-.242.618-.08 1.062-.173 1.33-.283V93.734h7.515v40.796zM205.37 94.947c1.723-.432 4.01-.89 6.867-1.375 2.852-.484 6.138-.727 9.854-.727 3.34 0 6.114.473 8.32 1.414 2.21.942 3.973 2.26 5.294 3.958 1.317 1.695 2.246 3.73 2.786 6.098.538 2.373.808 4.984.808 7.837v23.588h-7.513V113.77c0-2.584-.176-4.79-.525-6.624-.35-1.833-.93-3.313-1.737-4.442-.808-1.133-1.885-1.953-3.23-2.465-1.347-.514-3.02-.768-5.008-.768-.81 0-1.645.026-2.504.08-.86.054-1.685.12-2.463.202-.784.08-1.48.176-2.102.28-.62.11-1.063.19-1.333.243v35.464h-7.512V94.946zM256.665 93.734h15.914v6.3h-15.915v19.39c0 2.1.16 3.84.485 5.21s.81 2.452 1.454 3.23c.646.78 1.452 1.333 2.423 1.656.97.324 2.1.487 3.392.487 2.313 0 4.146-.258 5.493-.77 1.345-.512 2.262-.875 2.748-1.09l1.615 6.14c-.755.378-2.088.863-4 1.453-1.91.593-4.077.89-6.5.89-2.857 0-5.213-.363-7.07-1.09-1.857-.73-3.352-1.817-4.483-3.273-1.13-1.453-1.925-3.243-2.382-5.372-.46-2.126-.688-4.59-.688-7.39V82.02l7.513-1.292v13.006zM313.455 134.53c-1.726.432-4 .89-6.826 1.374-2.828.483-6.102.726-9.815.726-3.232 0-5.952-.472-8.16-1.413s-3.987-2.274-5.33-3.998c-1.35-1.725-2.317-3.758-2.91-6.102-.593-2.34-.89-4.94-.89-7.795v-23.59h7.515v21.974c0 5.117.808 8.78 2.424 10.986 1.614 2.21 4.334 3.314 8.16 3.314.806 0 1.64-.03 2.503-.083.86-.053 1.667-.122 2.422-.202.753-.08 1.44-.16 2.06-.242.617-.08 1.063-.173 1.334-.283V93.734h7.513v40.796z"/></g></svg>