<svg xmlns="http://www.w3.org/2000/svg" width="32" height="32.5" viewBox="0 0 32 32" enable-background="new 0 102 32 32"><path fill="#AEA79F" d="M27 147.5c0 6.352-5.148 11.5-11.5 11.5C9.15 159 4 153.852 4 147.5S9.15 136 15.5 136c6.352 0 11.5 5.148 11.5 11.5zm-15.592-3.05l3.57-2.083v-3.72l-6.845 3.868 3.275 1.935zm4.688-2.018l3.59 2.05 3.223-1.86-6.774-3.992-.04 3.802zm4.092 3.048l.02 4.135 3.223 1.86.072-7.862-3.314 1.867zm-.596 5.07l-3.57 2.083v3.72l6.845-3.868-3.275-1.935zm-4.688 2.018l-3.59-2.05-3.222 1.86 6.773 3.992.04-3.802zm-4.092-3.048l-.02-4.135-3.22-1.86-.072 7.862 3.312-1.867zm4.762-6.112l-3.57 2.083v4.02l3.57 2.082 3.423-2.083v-4.02l-3.423-2.082z"/></svg>