<svg xmlns="http://www.w3.org/2000/svg" width="90" height="90" viewBox="0 0 90 90.000001"><defs><clipPath><path d="M0 500h1024V0H0v500z"/></clipPath></defs><g><path fill="none" d="M0 0h90v90H0z"/><path d="M21 6C11 6 6 6 6 17.627v54.746C6 84 11 84 21 84h48c10 0 15 0 15-11.627V17.627C84 6 79 6 69 6H21zm36.16 15.172c2.71.048 5.412 1.04 8.16 3.69 2.333-.353 5.055-1.462 7.41-2.743-.257 2.18-2.692 4.97-4.818 6.36 2.58-.102 5.055-1.246 6.305-1.726-.862 2.112-4.03 4.81-5.598 6.082-.107 8.957-3.17 18.967-10.018 25.652-8.157 7.96-24.916 14.2-41.51 4.057 6.4.312 12.286-.614 17.187-4.863-3.808-.277-8.918-1.96-10.82-8.248 2.233.332 3.54.276 4.927-.137-4.338-1.123-9.438-5.457-9.024-11.71 1.09.683 3.29 1.468 5.106 1.368-3.444-2.132-7.385-8.72-3.542-15.496 3.77 3.636 10.04 11.237 24.236 12.09-1.29-6.528 2.824-12.3 7.102-13.597 1.64-.497 3.27-.81 4.894-.78z" opacity=".98" fill="#808080"/></g></svg>