<svg xmlns="http://www.w3.org/2000/svg" width="210" height="210" viewBox="0 0 210 210"><path fill="#DD4814" d="M105 0C47 0 0 47 0 105s47 105 105 105 105-47 105-105S163 0 105 0zm36.8 143.2c0 20.7 0 24.8-16.6 24.8H84.7c-16.6 0-16.6-4.1-16.6-24.8V66.8c0-20.7 0-24.8 16.6-24.8h40.5c16.6 0 16.6 4.1 16.6 24.8v76.4zm-67-89.6h60.5v102.8H74.8V53.6zm36.8-3.7H98.4c-.7 0-1.3-.6-1.3-1.3 0-.7.6-1.3 1.3-1.3h13.1c.7 0 1.3.6 1.3 1.3 0 .7-.5 1.3-1.2 1.3z"/><path fill="#fff" d="M108.4 93.8c5.9 0 10.7 4.5 11.2 10.2l5.5-.1c-.3-4.2-2.1-8-5-10.8-1.5.5-3.1.5-4.6-.4-1.5-.8-2.4-2.3-2.6-3.8-1.4-.4-2.9-.6-4.5-.6-2.602 0-5.2.6-7.4 1.7l2.7 4.8c1.4-.6 3-1 4.7-1zm7.8-2.4c1.8 1.1 4.2.4 5.2-1.4 1.1-1.8.4-4.2-1.4-5.2-1.8-1.1-4.2-.4-5.2 1.4-1 1.8-.4 4.1 1.4 5.2zm-27.4 9.8c-2.1 0-3.8 1.7-3.8 3.8 0 2.1 1.7 3.8 3.8 3.8 2.1 0 3.8-1.7 3.8-3.8.1-2.1-1.7-3.8-3.8-3.8zm27.4 17.4c-1.8 1.1-2.5 3.4-1.4 5.2 1.1 1.8 3.4 2.5 5.2 1.4s2.5-3.4 1.4-5.2c-1-1.8-3.4-2.5-5.2-1.4zm-19-13.6c0-3.8 1.9-7.1 4.8-9.2l-2.8-4.7c-3.4 2.2-5.9 5.7-6.9 9.7 1.2 1 2 2.5 2 4.2s-.8 3.2-2 4.2c1 4 3.5 7.4 6.9 9.7l2.8-4.7c-3-2.1-4.8-5.4-4.8-9.2zm18.2 12.3c1.5-.8 3.1-.9 4.6-.4 2.8-2.8 4.7-6.6 5-10.8l-5.5-.1c-.5 5.7-5.3 10.2-11.2 10.2-1.7 0-3.3-.4-4.7-1l-2.7 4.8c2.2 1.1 4.7 1.7 7.4 1.7 1.5 0 3-.2 4.5-.6.3-1.6 1.2-3 2.6-3.8z"/></svg>