<svg xmlns="http://www.w3.org/2000/svg" width="210" height="210" viewBox="0 0 210 210"><path fill="#DD4814" d="M44.2 70h122.5v70.7H44.2V70zm166.2 35.4c0 58-47 105-105 105s-105-47-105-105 47-105 105-105 105 47 105 105zm-31.5-30.3c0-19.3-4.8-19.3-28.9-19.3H60.8c-24.1 0-28.9 0-28.9 19.3v60.6c0 19.3 4.8 19.3 28.9 19.3H150c24.1 0 28.9 0 28.9-19.3V75.1zM105.4 66c1.5 0 2.6-1.2 2.6-2.6 0-1.5-1.2-2.6-2.6-2.6-1.4 0-2.6 1.2-2.6 2.6 0 1.4 1.2 2.6 2.6 2.6z"/><path fill="#fff" d="M107.2 92.8c6.6 0 12 5 12.6 11.5l6.2-.1c-.3-4.8-2.4-9-5.6-12.2-1.6.6-3.5.5-5.2-.4-1.6-.9-2.7-2.5-3-4.3-1.6-.4-3.3-.7-5-.7-3 0-5.8.7-8.3 1.9l3 5.4c1.6-.7 3.4-1.1 5.3-1.1zm8.8-2.7c2.1 1.2 4.7.5 5.9-1.6s.5-4.7-1.6-5.9c-2.1-1.2-4.7-.5-5.9 1.6-1.1 2.1-.4 4.7 1.6 5.9zm-30.8 11c-2.4 0-4.3 1.9-4.3 4.3s1.9 4.3 4.3 4.3 4.3-1.9 4.3-4.3-1.9-4.3-4.3-4.3zm30.8 19.6c-2.1 1.2-2.8 3.8-1.6 5.9 1.2 2.1 3.8 2.8 5.9 1.6 2.1-1.2 2.8-3.8 1.6-5.9s-3.8-2.8-5.9-1.6zm-21.4-15.3c0-4.3 2.1-8 5.4-10.3l-3.2-5.3c-3.8 2.5-6.6 6.4-7.8 10.9 1.4 1.1 2.2 2.8 2.2 4.7 0 1.9-.9 3.6-2.2 4.7 1.2 4.5 4 8.4 7.8 10.9l3.2-5.3c-3.3-2.3-5.4-6-5.4-10.3zm20.6 13.8c1.6-.9 3.5-1 5.2-.4 3.2-3.1 5.3-7.4 5.6-12.2l-6.2-.1c-.6 6.4-6 11.5-12.6 11.5-1.9 0-3.7-.4-5.3-1.2l-3 5.4c2.5 1.2 5.3 1.9 8.3 1.9 1.7 0 3.4-.2 5-.7.3-1.7 1.3-3.3 3-4.2z"/></svg>