<svg xmlns="http://www.w3.org/2000/svg" width="45" height="45" viewBox="0 0 45 45"><g fill="#333"><path d="M12.893 24.395h1.63v8.09h1.573v-8.09h1.628v-1.38h-4.83zM22.56 17.67c.213 0 .384-.057.51-.173.125-.12.188-.283.188-.487v-4.194c0-.168-.062-.305-.193-.407-.127-.106-.294-.158-.504-.158-.19 0-.346.052-.468.157-.12.1-.178.238-.178.406v4.194c0 .21.057.373.17.487.11.116.27.172.476.172zM26.03 25.414c-.216 0-.433.056-.644.167-.21.11-.41.275-.598.488v-3.053h-1.41v9.47h1.41v-.534c.182.216.383.374.596.477.21.1.457.15.732.15.412 0 .732-.13.947-.395.22-.266.33-.644.33-1.14v-3.876c0-.573-.115-1.01-.354-1.305-.23-.297-.567-.446-1.01-.446zm-.075 5.438c0 .225-.04.384-.123.48-.08.1-.205.148-.375.148-.12 0-.23-.025-.338-.075-.106-.048-.22-.133-.33-.246v-4.354c.095-.098.19-.17.286-.214.096-.048.197-.07.297-.07.186 0 .332.062.436.18.097.124.145.303.145.54v3.61zM20.93 30.81c-.133.15-.276.272-.434.372-.157.098-.29.146-.39.146-.132 0-.227-.036-.286-.11-.057-.072-.09-.193-.09-.357V25.5h-1.393v5.845c0 .417.082.724.245.936.166.21.406.313.73.313.263 0 .533-.07.812-.222.28-.15.547-.363.806-.646v.766h1.396v-6.985H20.93v5.304zM22.5 0C10.073 0 0 10.073 0 22.5 0 34.928 10.073 45 22.5 45 34.926 45 45 34.928 45 22.5 45 10.073 34.924 0 22.5 0zm3.635 11.112h1.57v5.9c0 .185.035.316.102.396.062.083.172.125.32.125.113 0 .26-.055.438-.162.174-.11.338-.246.482-.417v-5.84h1.574v7.697h-1.573v-.85c-.285.31-.588.552-.904.715-.312.162-.615.247-.912.247-.362 0-.634-.117-.82-.348-.183-.227-.274-.57-.274-1.03V11.11zm-5.84 1.76c0-.594.21-1.07.634-1.426.424-.35.993-.528 1.707-.528.652 0 1.183.188 1.6.558.415.37.622.854.622 1.442v3.974c0 .66-.206 1.176-.61 1.55-.41.372-.97.56-1.685.56-.687 0-1.237-.192-1.65-.576-.412-.39-.62-.91-.62-1.563v-3.99zm-4.283-4.495l1.15 4.167h.11l1.095-4.167h1.798l-2.06 6.105v4.33h-1.77v-4.137l-2.108-6.297h1.785zm20.593 21.958c0 2.784-2.258 5.044-5.04 5.044H14.042C11.257 35.38 9 33.12 9 30.334V26.28c0-2.785 2.258-5.043 5.043-5.043h17.52c2.784 0 5.042 2.258 5.042 5.043v4.055zM30.248 25.326c-.627 0-1.133.19-1.53.573-.394.38-.593.875-.593 1.477v3.142c0 .673.182 1.2.54 1.583.36.384.853.576 1.478.576.697 0 1.22-.18 1.566-.54.354-.364.526-.904.526-1.62v-.36H30.8v.317c0 .412-.05.68-.14.798-.09.12-.253.18-.485.18-.223 0-.38-.07-.473-.21-.092-.144-.137-.398-.137-.768v-1.314h2.67V27.38c0-.66-.17-1.168-.514-1.523-.34-.355-.833-.53-1.472-.53zm.553 2.75h-1.233v-.707c0-.294.045-.506.143-.63.098-.13.256-.19.48-.19.21 0 .368.06.464.19.096.124.146.335.146.63v.705z"/></g></svg>