<svg height="60" viewBox="0 0 60 60" width="60" xmlns="http://www.w3.org/2000/svg"><title/><g fill="none" fill-rule="evenodd"><g><path d="M30 60c16.57 0 30-13.43 30-30S46.57 0 30 0 0 13.43 0 30s13.43 30 30 30z" fill="#dd4814" id="Pocket"/><path d="M41.914 16.154c2.34 0 4.24 1.913 4.24 4.274v11.837c0 .22-.017.435-.048.646.032.317.048.636.048.958 0 6.785-7.232 12.286-16.154 12.286s-16.154-5.5-16.154-12.286c0-.322.016-.64.048-.957-.03-.21-.048-.426-.048-.645V20.428c0-2.36 1.9-4.274 4.24-4.274h23.828zM23.127 25.02L30 31.895l6.873-6.873c.837-.836 2.197-.834 3.033.002.837.837.84 2.194 0 3.033l-8.343 8.343c-.423.423-.98.632-1.536.627-.573.02-1.152-.19-1.59-.627l-8.343-8.343c-.838-.838-.836-2.197 0-3.033.838-.838 2.195-.84 3.033 0z" fill="#fff"/></g></g></svg>