<svg xmlns="http://www.w3.org/2000/svg" width="16" height="16" viewBox="0 0 16 16"><path fill="#AEA79F" d="M5.82 9.465c.83.47 1.556.842 2.18 1.113.624-.27 1.35-.642 2.18-1.113.828-.47 1.682-1.002 2.56-1.594s1.744-1.226 2.595-1.903c.228-.18.45-.363.665-.545h-2.466c-.488.372-.992.736-1.516 1.09-.61.415-1.233.803-1.87 1.167-.64.362-1.54.81-2.148 1.094-.61-.285-1.51-.73-2.147-1.095-.638-.365-1.26-.753-1.87-1.167-.525-.355-1.03-.72-1.517-1.09H0c.216.18.437.363.665.545.85.677 1.715 1.312 2.594 1.904.878.592 1.732 1.123 2.56 1.593"/></svg>