<svg xmlns="http://www.w3.org/2000/svg" width="45" height="45" viewBox="11 11 45 45" enable-background="new 11 11 45 45"><path fill="#dd4814" d="M36.625 24.712c-1.964.714-3.205 2.558-3.064 4.576l.05.778-.787-.095c-2.86-.364-5.36-1.603-7.48-3.685l-1.038-1.033-.267.763c-.565 1.7-.204 3.496.975 4.703.628.667.486.763-.597.365-.377-.127-.708-.222-.74-.175-.108.112.268 1.557.566 2.13.41.793 1.24 1.57 2.153 2.033l.77.366-.91.016c-.88 0-.912.016-.818.35.314 1.033 1.556 2.13 2.938 2.606l.975.333-.85.51c-1.256.732-2.733 1.144-4.21 1.175-.708.016-1.29.08-1.29.128 0 .158 1.918 1.048 3.033 1.398 3.347 1.033 7.324.588 10.31-1.176 2.122-1.255 4.243-3.75 5.233-6.165.534-1.287 1.068-3.64 1.068-4.767 0-.73.047-.827.928-1.7.52-.51 1.005-1.065 1.1-1.224.157-.303.14-.303-.66-.033-1.336.477-1.525.413-.864-.3.487-.51 1.07-1.43 1.07-1.7 0-.048-.237.03-.504.173-.283.16-.912.397-1.384.54l-.848.27-.77-.524c-.426-.286-1.022-.604-1.337-.7-.8-.22-2.027-.188-2.75.066zM33.5 56C21.074 56 11 45.926 11 33.5 11 21.073 21.074 11 33.5 11S56 21.073 56 33.5C56 45.926 45.926 56 33.5 56z"/></svg>