<svg xmlns="http://www.w3.org/2000/svg" width="16" height="16" viewBox="0 0 16 16"><path d="M5.82 6.535c-.828.47-1.682 1-2.56 1.593-.88.592-1.745 1.227-2.595 1.904-.228.182-.45.364-.665.546h2.466c.487-.372.992-.736 1.516-1.09.61-.415 1.233-.803 1.87-1.167.638-.363 1.54-.81 2.148-1.094.61.285 1.51.732 2.147 1.095.638.365 1.26.753 1.87 1.167.525.355 1.03.72 1.517 1.09H16c-.216-.18-.437-.363-.665-.544-.85-.677-1.715-1.312-2.594-1.904-.878-.593-1.732-1.124-2.56-1.595-.83-.47-1.556-.842-2.18-1.113-.624.27-1.35.642-2.18 1.113" fill="#AEA79F"/></svg>