<svg height="32" version="1" viewBox="0 0 32 32" width="32" xmlns="http://www.w3.org/2000/svg"><circle clip-rule="evenodd" cx="16" cy="16" fill="#d63327" fill-rule="evenodd" r="16"/><g fill="#fff"><path d="M19 5.998h-6.164c-2.82 0-5.475 1.98-5.475 4.453 0 2.53 1.923 4.495 4.792 4.495.2 0 .394-.045.584-.06-.188.356-.318.738-.318 1.155 0 .703.377 1.264.854 1.73-.358 0-.71.004-1.09.004C8.69 17.774 6 19.998 6 22.304 6 24.578 8.948 26 12.44 26c3.984 0 6.184-2.262 6.184-4.534 0-1.82-.538-2.913-2.2-4.09-.568-.402-1.655-1.38-1.655-1.957 0-.675.19-1.007 1.207-1.8 1.04-.813 1.776-1.782 1.776-3.112 0-1.58-.68-3.51-2.003-3.51H18l1-1zm-2.07 15.074c.05.212.078.43.078.65 0 1.835-1.185 3.27-4.58 3.27-2.415 0-4.158-1.528-4.158-3.364 0-1.8 2.163-3.298 4.58-3.27.56.005 1.087.096 1.563.248 1.31.913 2.25 1.428 2.518 2.466zm-3.867-6.85c-1.62-.046-3.162-1.812-3.44-3.94-.28-2.13.807-3.758 2.427-3.71 1.62.05 3.162 1.758 3.44 3.886.28 2.128-.806 3.813-2.427 3.765zM24 13.99v-3h-2v3h-3v2h3v3h2v-3h3v-2z"/></g></svg>