<!DOCTYPE svg PUBLIC "-//W3C//DTD SVG 1.1//EN" "http://www.w3.org/Graphics/SVG/1.1/DTD/svg11.dtd" [
	<!ENTITY ns_flows "http://ns.adobe.com/Flows/1.0/">
]><svg xmlns="http://www.w3.org/2000/svg" width="32" height="32" viewBox="-0.08 -0.001 32 32" overflow="visible" enable-background="new -0.08 -0.001 32 32"><path fill="#AEA79F" d="M31.818 16c0 8.837-7.122 16-15.91 16C7.124 32 0 24.837 0 16S7.123 0 15.91 0c8.786 0 15.908 7.163 15.908 16zm-21.57-4.244l4.94-2.897V3.68l-9.47 5.383 4.53 2.69zm6.485-2.808L21.7 11.8l4.458-2.587-9.37-5.556-.055 5.29zm5.66 4.242l.027 5.752 4.458 2.587.1-10.938-4.584 2.598zm-.824 7.052l-4.94 2.898v5.177l9.47-5.383-4.53-2.692zm-6.485 2.81l-4.967-2.854-4.457 2.59 9.37 5.553.055-5.288zm-5.66-4.242l-.028-5.752L4.94 10.47 4.84 21.407l4.582-2.597zm6.587-8.503l-4.94 2.897v5.59l4.94 2.897 4.735-2.897v-5.59l-4.735-2.896z"/></svg>