<svg xmlns="http://www.w3.org/2000/svg" width="45" height="45" viewBox="9.5 9.5 46 46" enable-background="new 9.5 9.5 46 46"><g fill="#AEA79F"><path d="M36.1 28.803c-1.926 0-2.787 1.06-3.27 1.802V29.06h-3.626c.047 1.022 0 10.913 0 10.913h3.627v-6.096c0-.326.023-.652.12-.885.263-.652.858-1.328 1.86-1.328 1.312 0 1.838 1 1.838 2.468v5.84h3.627v-6.26c0-3.35-1.79-4.91-4.175-4.91zm-3.27 1.84h-.023c.008-.014.018-.025.023-.038v.037zM23.568 29.06h3.627v10.913h-3.627zM32 9.5C19.594 9.5 9.5 19.594 9.5 32c0 12.407 10.094 22.5 22.5 22.5 12.407 0 22.5-10.093 22.5-22.5C54.5 19.594 44.407 9.5 32 9.5zm11.932 32.677c0 .955-.794 1.73-1.775 1.73H21.69c-.978 0-1.773-.774-1.773-1.73V21.473c0-.956.795-1.73 1.774-1.73h20.466c.98 0 1.775.775 1.775 1.73v20.704zM25.407 23.8c-1.24 0-2.052.813-2.052 1.884 0 1.047.788 1.885 2.004 1.885h.023c1.265 0 2.053-.84 2.053-1.886-.025-1.07-.788-1.885-2.03-1.885z"/></g></svg>