<svg height="128" viewBox="0 0 128 128" width="128" xmlns="http://www.w3.org/2000/svg"><path fill="#fff" d="M16.452 47.708h20.914v62.915H16.452zm10.596-30.33c-7.155 0-11.838 4.694-11.838 10.867 0 6.04 4.545 10.877 11.562 10.877h.14c7.294 0 11.833-4.836 11.833-10.877-.138-6.173-4.54-10.868-11.697-10.868zM88.706 46.23c-11.11 0-16.075 6.115-18.853 10.395v.204h-.135c.04-.067.096-.14.135-.207v-8.917H48.937c.28 5.904 0 62.915 0 62.915h20.917V75.487c0-1.884.14-3.754.693-5.1 1.515-3.76 4.954-7.65 10.734-7.65 7.57 0 10.6 5.772 10.6 14.227v33.66h20.914V74.546c0-19.325-10.32-28.316-24.086-28.316z"/></svg>