<svg xmlns="http://www.w3.org/2000/svg" width="512" height="512" viewBox="0 0 512 512"><path fill="#fff" d="M512 97.21c-18.838 8.353-39.082 14-60.33 16.54 21.687-13 38.343-33.586 46.187-58.116-20.3 12.04-42.778 20.78-66.705 25.49-19.16-20.415-46.462-33.17-76.673-33.17-58.014 0-105.046 47.03-105.046 105.04 0 8.232.93 16.25 2.72 23.938-87.3-4.382-164.7-46.2-216.51-109.753-9.04 15.512-14.222 33.556-14.222 52.807 0 36.444 18.544 68.596 46.73 87.433-17.22-.545-33.416-5.27-47.577-13.138-.01.438-.01.878-.01 1.32 0 50.895 36.21 93.35 84.26 103-8.812 2.4-18.093 3.687-27.673 3.687-6.77 0-13.35-.66-19.764-1.89 13.367 41.73 52.16 72.105 98.125 72.95-35.95 28.175-81.243 44.967-130.458 44.967-8.48 0-16.84-.497-25.058-1.47 46.485 29.805 101.7 47.196 161.02 47.196 193.21 0 298.868-160.063 298.868-298.872 0-4.553-.103-9.083-.305-13.59 20.527-14.81 38.335-33.31 52.417-54.372z"/></svg>