<svg xmlns="http://www.w3.org/2000/svg" width="200" height="200" viewBox="0 0 283.465 283.465" enable-background="new 0 0 283.465 283.465"><path fill="#AEA79F" d="M141.733 85.04c-31.262 0-56.693 25.43-56.693 56.69 0 31.262 25.432 56.696 56.693 56.696 31.26 0 56.692-25.434 56.692-56.695 0-31.26-25.433-56.69-56.692-56.69zm17.348 51.142H148.82v28.448c0 3.914-3.174 7.086-7.086 7.086-3.914 0-7.087-3.172-7.087-7.086v-28.448H124.38c-1.433 0-2.723-.863-3.272-2.187-.55-1.326-.246-2.852.77-3.863l17.342-17.344c1.385-1.383 3.63-1.383 5.012 0l17.172 17.173c.75.65 1.222 1.607 1.222 2.678 0 1.957-1.588 3.544-3.545 3.544z"/></svg>