<svg xmlns="http://www.w3.org/2000/svg" width="364.6" height="378.4" viewBox="0 0 364.6 378.4"><path fill="#782953" d="M259.6 0c-58 0-105 47-105 105s47 105 105 105 105-47 105-105-47-105-105-105zm36.8 143.2c0 20.7 0 24.8-16.6 24.8h-40.5c-16.6 0-16.6-4.1-16.6-24.8V66.8c0-20.7 0-24.8 16.6-24.8h40.5c16.6 0 16.6 4.1 16.6 24.8v76.4zm-67-89.6h60.5v102.8h-60.5V53.6zm36.8-3.7H253c-.7 0-1.3-.6-1.3-1.3s.6-1.3 1.3-1.3h13.1c.7 0 1.3.6 1.3 1.3s-.5 1.3-1.2 1.3z"/><path fill="#E9500E" d="M43.8 238h122.5v70.7H43.8V238zM210 273.4c0 58-47 105-105 105s-105-47-105-105 47-105 105-105 105 47 105 105zm-31.5-30.3c0-19.3-4.8-19.3-28.9-19.3H60.4c-24.1 0-28.9 0-28.9 19.3v60.6c0 19.3 4.8 19.3 28.9 19.3h89.2c24.1 0 28.9 0 28.9-19.3v-60.6zM105 234c1.5 0 2.6-1.2 2.6-2.6 0-1.5-1.2-2.6-2.6-2.6-1.4 0-2.6 1.2-2.6 2.6 0 1.4 1.2 2.6 2.6 2.6z"/><g fill="#fff"><path d="M106.8 260.8c6.6 0 12 5 12.6 11.5l6.2-.1c-.3-4.8-2.4-9-5.6-12.2-1.6.6-3.5.5-5.2-.4-1.6-.9-2.7-2.5-3-4.3-1.6-.4-3.3-.7-5-.7-3 0-5.8.7-8.3 1.9l3 5.4c1.6-.7 3.4-1.1 5.3-1.1zM115.6 258.1c2.1 1.2 4.7.5 5.9-1.6 1.2-2.1.5-4.7-1.6-5.9-2.1-1.2-4.7-.5-5.9 1.6-1.1 2.1-.4 4.7 1.6 5.9zM84.8 269.1c-2.4 0-4.3 1.9-4.3 4.3s1.9 4.3 4.3 4.3 4.3-1.9 4.3-4.3-1.9-4.3-4.3-4.3zM115.6 288.7c-2.1 1.2-2.8 3.8-1.6 5.9 1.2 2.1 3.8 2.8 5.9 1.6 2.1-1.2 2.8-3.8 1.6-5.9-1.2-2.1-3.8-2.8-5.9-1.6zM94.2 273.4c0-4.3 2.1-8 5.4-10.3l-3.2-5.3c-3.8 2.5-6.6 6.4-7.8 10.9 1.4 1.1 2.2 2.8 2.2 4.7 0 1.9-.9 3.6-2.2 4.7 1.2 4.5 4 8.4 7.8 10.9l3.2-5.3c-3.3-2.3-5.4-6-5.4-10.3zM114.8 287.2c1.6-.9 3.5-1 5.2-.4 3.2-3.1 5.3-7.4 5.6-12.2l-6.2-.1c-.6 6.4-6 11.5-12.6 11.5-1.9 0-3.7-.4-5.3-1.2l-3 5.4c2.5 1.2 5.3 1.9 8.3 1.9 1.7 0 3.4-.2 5-.7.3-1.7 1.3-3.3 3-4.2z"/></g><g fill="#fff"><path d="M263 93.8c5.9 0 10.7 4.5 11.2 10.2l5.5-.1c-.3-4.2-2.1-8-5-10.8-1.5.5-3.1.5-4.6-.4-1.5-.8-2.4-2.3-2.6-3.8-1.4-.4-2.9-.6-4.5-.6-2.6 0-5.2.6-7.4 1.7l2.7 4.8c1.4-.6 3-1 4.7-1zM270.8 91.4c1.8 1.1 4.2.4 5.2-1.4 1.1-1.8.4-4.2-1.4-5.2-1.8-1.1-4.2-.4-5.2 1.4-1 1.8-.4 4.1 1.4 5.2zM243.4 101.2c-2.1 0-3.8 1.7-3.8 3.8 0 2.1 1.7 3.8 3.8 3.8 2.1 0 3.8-1.7 3.8-3.8.1-2.1-1.7-3.8-3.8-3.8zM270.8 118.6c-1.8 1.1-2.5 3.4-1.4 5.2 1.1 1.8 3.4 2.5 5.2 1.4 1.8-1.1 2.5-3.4 1.4-5.2-1-1.8-3.4-2.5-5.2-1.4zM251.8 105c0-3.8 1.9-7.1 4.8-9.2l-2.8-4.7c-3.4 2.2-5.9 5.7-6.9 9.7 1.2 1 2 2.5 2 4.2 0 1.7-.8 3.2-2 4.2 1 4 3.5 7.4 6.9 9.7l2.8-4.7c-3-2.1-4.8-5.4-4.8-9.2zM270 117.3c1.5-.8 3.1-.9 4.6-.4 2.8-2.8 4.7-6.6 5-10.8l-5.5-.1c-.5 5.7-5.3 10.2-11.2 10.2-1.7 0-3.3-.4-4.7-1l-2.7 4.8c2.2 1.1 4.7 1.7 7.4 1.7 1.5 0 3-.2 4.5-.6.3-1.6 1.2-3 2.6-3.8z"/></g></svg>